<svg width="20" height="20" viewBox="0 0 20 20" fill="none" xmlns="http://www.w3.org/2000/svg">
<path d="M15.9155 12.2142C15.9155 15.5279 13.267 18.2142 9.99997 18.2142C6.73293 18.2142 4.08447 15.5279 4.08447 12.2142C4.08447 8.90053 6.73293 9.49995 9.99997 9.49995C13.267 9.49995 15.9155 8.90053 15.9155 12.2142Z" fill="#CCA595"/>
<path d="M9.43652 1.5H10.5633V11.0714H9.43652V1.5Z" fill="#56965C"/>
<path d="M9.62371 10.855C9.4037 10.6318 9.4037 10.27 9.62371 10.0469V10.0469C9.84373 9.82371 10.2004 9.82371 10.4205 10.0469L13.1578 12.8233C13.3778 13.0465 13.3778 13.4083 13.1578 13.6314V13.6314C12.9378 13.8546 12.5811 13.8546 12.3611 13.6314L9.62371 10.855Z" fill="#56965C"/>
<path d="M9.37775 9.90406C9.59777 9.6809 9.95448 9.6809 10.1745 9.90406V9.90406C10.3945 10.1272 10.3945 10.489 10.1745 10.7122L7.18698 13.7424C6.96697 13.9655 6.61025 13.9655 6.39024 13.7424V13.7424C6.17022 13.5192 6.17022 13.1574 6.39024 12.9343L9.37775 9.90406Z" fill="#56965C"/>
<path d="M10.5758 11.8326C10.7958 11.6095 11.1525 11.6095 11.3725 11.8326V11.8326C11.5925 12.0558 11.5925 12.4176 11.3725 12.6408L10.2814 13.7475C10.0613 13.9706 9.70464 13.9706 9.48462 13.7475V13.7475C9.26461 13.5243 9.26461 13.1625 9.48462 12.9394L10.5758 11.8326Z" fill="#56965C"/>
<path d="M14.0765 12.5714C14.3921 12.5714 14.6479 12.8272 14.6479 13.1428V13.1428C14.6479 13.4584 14.3921 13.7143 14.0765 13.7143L12.8954 13.7143C12.5798 13.7143 12.324 13.4584 12.324 13.1428V13.1428C12.324 12.8272 12.5798 12.5714 12.8954 12.5714L14.0765 12.5714Z" fill="#56965C"/>
<path d="M12.0422 13.3491C12.0422 13.038 12.2945 12.7858 12.6056 12.7858V12.7858C12.9168 12.7858 13.169 13.038 13.169 13.3491V14.9304C13.169 15.2415 12.9168 15.4938 12.6056 15.4938V15.4938C12.2945 15.4938 12.0422 15.2415 12.0422 14.9304V13.3491Z" fill="#56965C"/>
</svg>
