<svg width="20" height="20" viewBox="0 0 20 20" fill="none" xmlns="http://www.w3.org/2000/svg">
<g clip-path="url(#clip0)">
<path d="M6.52442 5.8653C6.40749 5.01046 5.80238 4.65858 5.2751 4.61425C4.85015 4.57826 4.44952 4.72169 4.18275 4.97897C3.91602 4.72169 3.5152 4.57834 3.09036 4.61425C2.56308 4.65858 1.95797 5.0105 1.84104 5.8653C1.6075 7.5724 3.95362 8.73401 4.05362 8.78267C4.09437 8.80247 4.13854 8.81239 4.18271 8.81239C4.22689 8.81239 4.27106 8.80247 4.31181 8.78267C4.41184 8.73401 6.75796 7.5724 6.52442 5.8653Z" fill="#FF3D43"/>
<path d="M6.52446 5.86539C6.40753 5.01056 5.80242 4.65867 5.27514 4.61434C4.99896 4.59096 4.73338 4.64371 4.50783 4.75387C4.8642 4.93021 5.17349 5.27973 5.25361 5.86539C5.42175 7.09455 4.25259 8.04084 3.54736 8.49257C3.82157 8.6682 4.02571 8.76914 4.0537 8.78273C4.09444 8.80253 4.13862 8.81245 4.18279 8.81245C4.22696 8.81245 4.27114 8.80253 4.31188 8.78273C4.41188 8.7341 6.758 7.5725 6.52446 5.86539Z" fill="#D72E2E"/>
<path d="M17.3258 6.60388C16.5698 5.39767 15.728 4.22473 14.9554 3.30116C14.3704 2.60191 13.5243 1.6872 12.8155 1.30059C12.2538 0.994173 11.3648 0.742089 10.4374 0.626342C9.85414 0.553469 8.78758 0.479494 8.1966 0.802246C7.67881 1.085 7.43964 2.12798 7.3431 2.72447C7.18897 3.67714 7.16999 4.9624 7.62369 5.44921C7.85845 5.7011 8.20443 5.8342 8.62443 5.83417C8.62502 5.83417 8.62569 5.83417 8.62628 5.83417C9.28332 5.83357 10.0356 5.49846 10.4981 5.00024C10.6754 4.80929 10.7545 4.8287 11.1669 5.03638C11.5322 5.22035 12.0324 5.47228 12.7565 5.39181C12.761 5.3913 12.7643 5.39126 12.7661 5.39126C12.7822 5.40484 12.8729 5.50141 12.9191 5.98381C12.957 6.37849 12.9539 6.90384 12.9506 7.46009C12.944 8.59382 12.9367 9.84074 13.2247 10.8166C12.8204 10.6231 12.2837 10.4147 11.6529 10.2852C10.386 10.0251 8.49786 10.05 6.59409 11.5865C6.34886 11.3825 5.89402 11.046 5.2993 10.7919C4.09187 10.2759 2.88862 10.3484 1.81965 11.0016C1.19021 11.3863 0.690373 11.9955 0.374274 12.7635C0.0837647 13.4692 -0.0414703 14.2741 0.0120725 15.0912C0.122426 16.7748 0.971945 18.1672 2.22918 18.7251C3.37235 19.2325 5.83477 19.4366 7.9838 19.4366C9.5591 19.4366 10.9661 19.3269 11.5612 19.1465C12.3976 18.893 14.4028 18.1049 16.2228 17.0692C18.6569 15.684 19.9264 14.3448 19.9962 13.089C20.1016 11.1932 17.9789 7.64588 17.3258 6.60388Z" fill="white"/>
<path d="M19.9999 12.948C19.9999 12.6824 19.9633 12.4172 19.9097 12.1575C19.5085 10.2029 17.8831 7.49257 17.3261 6.60392C16.5701 5.39771 15.7283 4.22477 14.9557 3.3012C14.3707 2.60195 13.5247 1.68724 12.8158 1.30062C12.2541 0.99421 11.3651 0.742126 10.4377 0.626379C10.1309 0.588073 9.69044 0.54949 9.25576 0.568467C10.116 0.693072 10.9261 0.93177 11.4507 1.21795C12.1596 1.60456 13.0056 2.51931 13.5906 3.21852C14.3632 4.14209 15.2051 5.31503 15.961 6.52124C16.6141 7.56328 18.7368 11.1105 18.6315 13.0064C18.6228 13.162 18.5957 13.3188 18.5503 13.4769C18.3995 14.0015 18.0618 14.4519 17.6179 14.7696C17.1868 15.0781 16.6958 15.3893 16.1446 15.703C14.3246 16.7388 12.3194 17.5268 11.483 17.7803C10.8879 17.9607 9.48092 18.0704 7.90562 18.0704C5.75658 18.0704 3.29416 17.8663 2.15099 17.359C1.05544 16.8728 0.269704 15.7528 0.0126201 14.359C-0.00332464 14.6004 -0.00371834 14.8453 0.0124232 15.0913C0.122777 16.7749 0.972296 18.1673 2.22953 18.7253C2.96121 19.0499 4.23349 19.2503 5.61792 19.3525C6.22146 19.3969 6.82637 19.4225 7.43149 19.4321C7.6157 19.4351 7.79995 19.4367 7.98416 19.4367C9.55946 19.4367 10.9664 19.327 11.5616 19.1466C12.398 18.8931 14.4032 18.1051 16.2232 17.0693C18.6572 15.6841 19.9268 14.3449 19.9966 13.0891C19.9992 13.0421 19.9999 12.9951 19.9999 12.948Z" fill="#F7B081"/>
</g>
<defs>
<clipPath id="clip0">
<rect width="20" height="20" fill="white"/>
</clipPath>
</defs>
</svg>
