<svg width="20" height="20" viewBox="0 0 20 20" fill="none" xmlns="http://www.w3.org/2000/svg">
<path d="M7.72458 14.9967L7.13126 16.0445C6.93755 16.3865 7.26255 16.7891 7.63774 16.6719L8.80517 16.3071L7.72458 14.9967Z" fill="#EBAF4B"/>
<path d="M12.6455 17.9071L12.9084 18.8884C13.0102 19.268 13.5242 19.3271 13.7095 18.9805L14.2023 18.0586L12.6455 17.9071Z" fill="#EBAF4B"/>
<path d="M18.8097 16.0093L17.3984 16.5919L18.1497 17.2867C18.4382 17.5536 18.9046 17.3295 18.8764 16.9374L18.8097 16.0093Z" fill="#EBAF4B"/>
<path d="M7.62266 9.67126L6.61488 10.1549C6.26051 10.3249 6.29723 10.841 6.67215 10.9592L7.7541 11.3001L7.62266 9.67126Z" fill="#EBAF4B"/>
<path d="M18.992 12.268C17.3052 11.0229 15.499 11.7623 14.9022 13.1464C14.8387 13.2937 14.6759 13.3687 14.5233 13.3193C14.282 13.241 14.0249 13.1979 13.7575 13.1979C13.4021 13.1979 13.0648 13.2732 12.759 13.4073C12.5916 13.4807 12.401 13.4052 12.3351 13.2348C12.2242 12.9483 12.0622 12.6875 11.8601 12.4632C11.7546 12.3461 11.7563 12.1693 11.8617 12.0522C12.261 11.6089 12.505 11.0234 12.505 10.3798C12.505 9.67015 12.2089 9.03078 11.7345 8.57539C11.6013 8.44762 11.601 8.24148 11.7341 8.11375C12.5901 7.2925 12.8659 5.87254 11.8703 4.52141C11.8493 4.49297 11.8227 4.46621 11.7944 4.44516C10.945 3.81399 10.0659 3.68918 9.32509 3.89617C9.16243 3.9416 8.9961 3.85 8.94618 3.68867C8.46966 2.14895 6.55243 1.24321 4.76575 2.56047C4.73735 2.58141 4.71071 2.60797 4.6897 2.63633C3.16587 4.69148 4.59868 6.93535 6.55556 6.93535C6.78782 6.93535 7.01267 6.90367 7.2261 6.84445C7.39028 6.79891 7.55899 6.88805 7.60938 7.05082C7.73645 7.46117 7.96591 7.82605 8.26833 8.11594C8.40059 8.24273 8.39849 8.44789 8.26622 8.57473C7.79138 9.03015 7.49497 9.6698 7.49497 10.3798C7.49497 11.0233 7.73892 11.6088 8.13813 12.0521C8.24438 12.1701 8.24395 12.3474 8.13778 12.4654C7.38845 13.2979 7.18645 14.6316 8.11907 15.9095C8.13966 15.9378 8.16583 15.9643 8.19376 15.9853C9.18622 16.733 10.2018 16.7837 11.0017 16.4316C11.1685 16.3582 11.3572 16.4371 11.423 16.6071C11.7855 17.5435 12.6932 18.208 13.7576 18.208C14.7888 18.208 15.6732 17.5845 16.0572 16.6943C16.1208 16.5468 16.2835 16.4715 16.4363 16.521C16.6775 16.5993 16.9346 16.6423 17.202 16.6423C19.1585 16.6423 20.5911 14.3994 19.0689 12.3446C19.0476 12.3161 19.0207 12.2892 18.992 12.268Z" fill="#D4F582"/>
<path d="M17.8283 15.3899C17.7296 15.3899 17.6324 15.3839 17.5368 15.3724C17.184 15.33 16.8442 15.4705 16.6146 15.7417C16.4305 15.9592 16.2095 16.1446 15.9626 16.2906C15.5915 16.5117 15.1608 16.6424 14.697 16.6424C13.5298 16.6424 12.5435 15.8454 12.2709 14.7636C12.1938 14.4576 11.594 14.1516 11.3831 14.8969C11.301 15.187 10.9925 15.3947 10.6984 15.3283C9.8115 15.128 9.10294 14.4573 8.8488 13.5921C8.74513 13.2392 9.01166 12.8849 9.37951 12.8849H10.0001C10.8492 12.8849 11.5967 12.4605 12.049 11.814L12.049 11.814C11.6135 11.96 11.1277 11.9956 10.6183 11.8635C9.74045 11.6358 9.0417 10.9271 8.82279 10.047C8.73189 9.68168 8.72728 9.32887 8.78771 8.99863C8.82912 8.77234 9.05244 8.63703 9.27232 8.70465C9.50248 8.77543 9.74654 8.81414 10 8.81414C10.6944 8.81414 11.3205 8.53 11.7731 8.07297C11.7803 8.06582 11.787 8.05828 11.7941 8.05105C11.9398 7.90035 12.0676 7.73219 12.1723 7.54883C11.8081 7.75535 11.3881 7.87477 10.9394 7.87477C9.80732 7.87477 8.85271 7.12309 8.54291 6.09191C8.48158 5.88781 8.28474 5.7659 8.07482 5.80258C7.72752 5.86328 7.41673 5.9275 6.8883 5.80027C5.90287 5.56305 5.29447 4.56051 5.29447 4.56051L4.08814 4.03027C3.84732 5.59055 5.04115 6.93539 6.55556 6.93539C6.78822 6.93539 7.01341 6.90359 7.22712 6.84422C7.38908 6.79922 7.55947 6.88922 7.60912 7.04984C7.73611 7.46062 7.96568 7.82586 8.26837 8.11598C8.40072 8.24281 8.39857 8.44801 8.26627 8.57488C7.79138 9.03023 7.49498 9.66988 7.49498 10.3798C7.49498 11.0234 7.73896 11.609 8.13822 12.0522C8.24443 12.1701 8.24404 12.3475 8.13787 12.4654C7.38919 13.297 7.18685 14.629 8.11634 15.9058C8.14302 15.9329 8.17088 15.9611 8.19752 15.9882C9.18884 16.7332 10.2029 16.7833 11.0017 16.4316C11.1685 16.3582 11.3572 16.4371 11.423 16.6071C11.4236 16.6087 11.4242 16.6095 11.4248 16.611C11.7888 17.5451 12.6947 18.2081 13.7576 18.2081C14.7857 18.2081 15.6655 17.5873 16.0505 16.7009C16.1172 16.5474 16.2863 16.4695 16.4454 16.5214C16.6839 16.599 16.9374 16.6425 17.202 16.6425C18.4327 16.6425 19.454 15.7542 19.665 14.5843C19.2075 15.0786 18.5551 15.3899 17.8283 15.3899Z" fill="#BEE86E"/>
<path d="M2.68071 7.24844C3.99929 7.24844 5.06821 6.12688 5.06821 4.74336C5.06821 3.35984 3.99929 2.23828 2.68071 2.23828C1.36213 2.23828 0.293213 3.35984 0.293213 4.74336C0.293213 6.12688 1.36213 7.24844 2.68071 7.24844Z" fill="#FFDC64"/>
<path d="M3.72516 6.15249C2.40652 6.15249 1.33754 5.03092 1.33754 3.64745C1.33754 3.23838 1.43293 2.85334 1.59863 2.51233C0.824375 2.92651 0.292969 3.76897 0.292969 4.74338C0.292969 6.12686 1.36195 7.24842 2.68059 7.24842C3.60934 7.24842 4.4123 6.69088 4.80711 5.8785C4.48203 6.05241 4.11508 6.15249 3.72516 6.15249Z" fill="#FFC850"/>
<path d="M2.48481 4.74331C2.83064 4.74331 3.11099 4.46296 3.11099 4.11714C3.11099 3.77131 2.83064 3.49097 2.48481 3.49097C2.13899 3.49097 1.85864 3.77131 1.85864 4.11714C1.85864 4.46296 2.13899 4.74331 2.48481 4.74331Z" fill="#4B3F4E"/>
<path d="M2.48489 3.19788C1.97802 3.19788 1.56567 3.61026 1.56567 4.1171C1.56567 4.62397 1.97806 5.03635 2.48489 5.03635C2.99177 5.03635 3.40411 4.62397 3.40411 4.1171C3.40411 3.61022 2.99177 3.19788 2.48489 3.19788ZM2.48489 4.45042C2.3011 4.45042 2.15161 4.30088 2.15161 4.1171C2.15161 3.93331 2.30114 3.78381 2.48489 3.78381C2.66868 3.78381 2.81817 3.93335 2.81817 4.1171C2.81817 4.30088 2.66868 4.45042 2.48489 4.45042Z" fill="black"/>
<path d="M19.1243 16.1677C19.663 15.6573 20 14.9362 20 14.1373C20 12.5945 18.7448 11.3393 17.202 11.3393C16.0654 11.3393 15.0457 12.0359 14.6182 13.0687C14.3166 12.96 14.002 12.905 13.6793 12.905C13.3349 12.905 12.9922 12.9693 12.6721 13.0927C12.5386 12.7586 12.3433 12.456 12.0945 12.1975C12.5699 11.6829 12.8372 11.008 12.8372 10.3016C12.8372 9.57157 12.5561 8.88203 12.0561 8.36321C12.5977 7.83836 12.9024 7.12571 12.9024 6.36133C12.9024 4.81852 11.6472 3.56332 10.1044 3.56332C9.84059 3.56332 9.58211 3.59957 9.3323 3.67137C8.97668 2.50957 7.90203 1.69762 6.65996 1.69762C5.87516 1.69762 5.1266 2.03223 4.59961 2.60625C4.24746 2.30961 3.82727 2.10457 3.38055 2.00824C3.33063 1.67262 3.17613 1.0134 2.70461 0.478986C2.59758 0.357697 2.41242 0.346135 2.29109 0.453166C2.16977 0.560197 2.1582 0.745354 2.26523 0.866682C2.57715 1.22016 2.7143 1.65832 2.77395 1.94614C2.65805 1.94711 2.54398 1.95551 2.43184 1.97028C1.96211 1.29453 1.35297 1.04988 1.32609 1.03934C1.17539 0.980393 1.00547 1.05469 0.946484 1.20539C0.887539 1.35606 0.961875 1.52602 1.11254 1.58496C1.1168 1.58664 1.47812 1.73676 1.81203 2.12539C0.754375 2.525 0 3.54758 0 4.74348C0 6.28629 1.2552 7.54149 2.79801 7.54149C3.58273 7.54149 4.33133 7.20684 4.8584 6.63285C5.36062 7.05598 6.00105 7.2936 6.65996 7.2936C6.92387 7.2936 7.18246 7.25731 7.43234 7.18547C7.5607 7.60266 7.78527 7.98434 8.08773 8.29942C7.75504 8.62172 7.51215 9.01512 7.37391 9.44766L6.41969 9.90559C6.1491 10.0354 5.98805 10.3128 6.00937 10.6121C6.03066 10.9115 6.22941 11.1632 6.51566 11.2534L7.54938 11.5791C7.67309 11.82 7.83191 12.0434 8.02293 12.2415C7.54766 12.7561 7.28035 13.4309 7.28035 14.1374C7.28035 14.4257 7.32426 14.704 7.40562 14.966L6.87652 15.9003C6.72863 16.1615 6.75488 16.4811 6.9434 16.7147C7.08434 16.8892 7.29137 16.9853 7.50664 16.9853C7.57934 16.9853 7.65297 16.9743 7.72531 16.9518L8.78898 16.6194C9.17516 16.8208 9.61348 16.9354 10.0784 16.9354C10.4229 16.9354 10.7657 16.8711 11.086 16.7476C11.3343 17.3655 11.792 17.8643 12.3615 18.1698L12.6059 19.0818C12.6836 19.3716 12.9264 19.5811 13.2245 19.6154C13.253 19.6187 13.2812 19.6203 13.3093 19.6203C13.5755 19.6203 13.8203 19.4756 13.9482 19.2362L14.3909 18.408C15.2267 18.1861 15.9275 17.5827 16.2632 16.7718C16.5648 16.8805 16.8794 16.9354 17.2021 16.9354C17.2324 16.9354 17.2624 16.9341 17.2925 16.9331L17.964 17.5542C18.1019 17.6817 18.2776 17.7481 18.4561 17.7481C18.5629 17.7481 18.6707 17.7243 18.772 17.6756C19.0425 17.5456 19.2034 17.2682 19.1819 16.9689L19.1243 16.1677ZM6.69172 10.6945C6.60945 10.6686 6.59582 10.5991 6.59379 10.5704C6.59176 10.5418 6.59539 10.4711 6.67316 10.4338L7.24469 10.1595C7.24234 10.2066 7.24113 10.2539 7.24113 10.3015C7.24113 10.5006 7.26277 10.6966 7.3034 10.8872L6.69172 10.6945ZM7.55047 16.3924C7.46816 16.418 7.4173 16.3689 7.39922 16.3465C7.38117 16.3242 7.34379 16.2641 7.38629 16.189L7.70777 15.6213C7.84078 15.8329 8.00102 16.0257 8.18406 16.1944L7.55047 16.3924ZM13.2914 19.0332C13.2629 19.03 13.1941 19.0133 13.1718 18.93L13.0367 18.4259C13.2432 18.4748 13.4577 18.5007 13.6768 18.5009L13.4314 18.9598C13.3907 19.036 13.3198 19.0367 13.2914 19.0332ZM13.6793 17.9151C12.7411 17.9151 11.9106 17.3207 11.599 16.4485C11.8208 16.2523 12.2089 15.847 12.4827 15.2183C12.5473 15.07 12.4795 14.8973 12.3311 14.8327C12.1829 14.7681 12.0102 14.836 11.9455 14.9843C11.6492 15.6646 11.1902 16.0323 11.1071 16.095C10.7915 16.2612 10.4362 16.3494 10.0782 16.3494C8.85851 16.3494 7.86617 15.3571 7.86617 14.1373C7.86617 13.5527 8.09883 12.9956 8.50887 12.5822C8.77191 12.6837 9.28457 12.8385 9.96414 12.8385C10.0307 12.8385 10.0991 12.837 10.1688 12.8339C10.3305 12.8265 10.4555 12.6895 10.4482 12.5279C10.4408 12.3662 10.3038 12.2418 10.1422 12.2486C9.31488 12.2864 8.7384 12.0481 8.61102 11.9898C8.11266 11.5679 7.82703 10.9547 7.82703 10.3015C7.82703 9.65957 8.09992 9.06399 8.58023 8.64301C8.83277 8.73496 9.33883 8.88782 9.97348 8.91563C9.97785 8.91582 9.98219 8.9159 9.98652 8.9159C10.1424 8.9159 10.2721 8.79301 10.279 8.63575C10.2861 8.4741 10.1607 8.33731 9.9991 8.33024C9.32797 8.30082 8.8157 8.10891 8.68332 8.05481C8.32789 7.75614 8.07637 7.35407 7.96289 6.90649C8.3425 6.5609 8.65613 6.17821 8.89543 5.76614C8.97668 5.62621 8.92914 5.44692 8.78922 5.36567C8.6493 5.28446 8.47 5.332 8.38875 5.47188C8.16238 5.86164 7.85781 6.22325 7.48434 6.54797C7.22203 6.65352 6.94504 6.70766 6.65988 6.70766C6.08836 6.70766 5.55449 6.49282 5.14176 6.10047C5.20719 5.63543 5.24207 5.19758 5.24496 4.79758C5.24613 4.63578 5.1159 4.50367 4.9541 4.5025C4.79297 4.50278 4.6602 4.63157 4.65906 4.79336C4.65625 5.1866 4.61992 5.62141 4.55184 6.08606C4.13355 6.63129 3.48344 6.95555 2.79797 6.95555C1.57828 6.95555 0.585938 5.96321 0.585938 4.74348C0.585938 3.52371 1.57828 2.53141 2.79801 2.53141C3.4066 2.53141 3.97246 2.775 4.39488 3.21723C4.41625 3.25516 4.47199 3.36504 4.52645 3.56438C4.56207 3.69457 4.68008 3.78016 4.80887 3.78016C4.83445 3.78016 4.86043 3.7768 4.88629 3.76969C5.04238 3.72703 5.1343 3.5659 5.09164 3.40985C5.05219 3.26559 5.01066 3.15348 4.97383 3.06879C5.3927 2.57457 6.01043 2.28356 6.65992 2.28356C7.72508 2.28356 8.63406 3.03922 8.83086 4.08367C8.82981 4.12782 8.8241 4.23961 8.795 4.39867C8.7659 4.55785 8.87133 4.71047 9.03047 4.73957C9.04828 4.74282 9.06602 4.74442 9.08352 4.74442C9.22227 4.74442 9.34551 4.64543 9.37137 4.5041C9.38844 4.41082 9.39906 4.32985 9.40582 4.26266C9.63027 4.18782 9.86438 4.1493 10.1043 4.1493C11.324 4.1493 12.3164 5.14164 12.3164 6.36137C12.3164 7.04407 12.0077 7.67434 11.4691 8.09786C11.3769 8.13344 11.2827 8.16602 11.1879 8.19352C11.0324 8.23856 10.943 8.40106 10.988 8.55645C11.0252 8.68461 11.1422 8.76797 11.2693 8.76797C11.2963 8.76797 11.3237 8.76422 11.3509 8.75633C11.4189 8.73664 11.4866 8.71489 11.5537 8.69157C11.9985 9.10938 12.2512 9.68723 12.2512 10.3017C12.2512 10.9307 11.982 11.5279 11.5122 11.9485C11.4341 11.9791 11.3556 12.0082 11.2778 12.0342C11.1243 12.0853 11.0412 12.2512 11.0923 12.4047C11.1332 12.5275 11.2476 12.6052 11.3703 12.6052C11.4009 12.6052 11.4321 12.6004 11.4629 12.5901C11.5108 12.5741 11.5591 12.557 11.6073 12.5394C11.8924 12.8122 12.0971 13.1545 12.205 13.5393C12.2089 13.6441 12.2092 13.7485 12.2044 13.85C12.1968 14.0117 12.3217 14.1488 12.4834 14.1564C12.488 14.1566 12.4927 14.1567 12.4973 14.1567C12.6528 14.1567 12.7823 14.0344 12.7897 13.8775C12.7928 13.8114 12.7943 13.7444 12.7942 13.6769C13.0722 13.5556 13.3746 13.4911 13.6792 13.4911C14.0208 13.4911 14.3512 13.5693 14.6614 13.7236C14.6629 13.7243 14.6695 13.7275 14.6713 13.7283C14.6732 13.7291 14.8647 13.8185 15.093 14.0256C15.1491 14.0764 15.2195 14.1015 15.2897 14.1015C15.3695 14.1015 15.449 14.0691 15.5068 14.0054C15.6155 13.8856 15.6065 13.7002 15.4867 13.5916C15.3605 13.4771 15.2424 13.3903 15.1461 13.3273C15.4755 12.4919 16.291 11.9254 17.202 11.9254C18.4217 11.9254 19.414 12.9177 19.414 14.1375C19.414 15.3573 18.4217 16.3496 17.202 16.3496C16.9283 16.3496 16.662 16.2985 16.4073 16.1992C16.4552 15.7232 16.4175 15.2769 16.2944 14.8698C16.2475 14.7148 16.0839 14.6273 15.9291 14.6742C15.7742 14.721 15.6867 14.8846 15.7335 15.0395C15.8488 15.4204 15.8718 15.8499 15.8024 16.3162C15.5308 17.2583 14.6603 17.9151 13.6793 17.9151ZM18.518 17.1475C18.4921 17.1599 18.425 17.1825 18.3618 17.124L18.0243 16.8118C18.2145 16.7532 18.3957 16.6746 18.5663 16.5789L18.5973 17.0107C18.6035 17.0968 18.5439 17.135 18.518 17.1475Z" fill="black"/>
</svg>
