<svg width="20" height="20" viewBox="0 0 20 20" fill="none" xmlns="http://www.w3.org/2000/svg">
<path d="M17.125 12.875C17.125 16.8333 13.9167 20 10 20C6.08332 20 2.875 16.8333 2.875 12.875C2.875 8.91668 10 0 10 0C10 0 17.125 8.95832 17.125 12.875Z" fill="white"/>
<path d="M10 18.125C7.125 18.125 4.75 15.7917 4.75 12.875C4.75 12.5417 5.04168 12.25 5.375 12.25C5.70832 12.25 6 12.5417 6 12.875C6 15.0833 7.79168 16.875 10 16.875C10.3333 16.875 10.625 17.1667 10.625 17.5C10.625 17.8333 10.3333 18.125 10 18.125Z" fill="#84DBFF"/>
</svg>
