<svg width="27" height="27" viewBox="0 0 27 27" fill="none" xmlns="http://www.w3.org/2000/svg">
<mask id="mask0" mask-type="alpha" maskUnits="userSpaceOnUse" x="0" y="0" width="27" height="27">
<circle cx="13.5" cy="13.5" r="13.5" fill="#C4C4C4"/>
</mask>
<g mask="url(#mask0)">
<path d="M6.95879 14.0685H17.427V19.1824H6.95879V14.0685Z" fill="#FEA02C"/>
<path d="M10.5664 17.1959V15.6333H8.53133V16.5298L10.5664 17.1959Z" fill="#FF5D5D"/>
<path d="M7.10079 26.1572C8.80809 23.3597 11.1031 21.043 13.7724 19.3262L13.8749 19.1825C10.5362 17.0969 5.14551 15.4365 -0.0553131 15.9345L2.56498 27.3116H6.39601L7.10079 26.1572Z" fill="#62CD4D"/>
<path d="M6.39601 27.3116L7.10079 26.1572C10.9768 19.8064 17.041 15.9345 27.166 15.8239L25.3203 27.3116H6.39601Z" fill="#A0E557"/>
<path d="M6.95879 14.0685L9.54882 11.4631L12.1389 14.0685H6.95879Z" fill="#FE8F8D"/>
<path d="M17.427 14.0685L14.8369 11.4631H9.54881L12.1388 14.0685H17.427Z" fill="#FF5D5D"/>
<path d="M20.9449 14.6095C17.4924 11.8334 17.4924 7.33246 20.9449 4.55652C24.3974 7.33246 24.3974 11.8334 20.9449 14.6095Z" fill="#A0E557"/>
<path d="M5.06248 13.8142C2.45221 11.7154 2.45221 8.31255 5.06248 6.21375C7.67276 8.31255 7.67276 11.7154 5.06248 13.8142Z" fill="#A0E557"/>
<path d="M10.9008 21.4631C8.36112 20.1237 4.5369 19.0882 1.1619 19.4202L2.56498 23.1088C4.57706 23.1088 6.54343 23.5464 8.33962 24.3513" fill="#A0E557"/>
<path d="M8.72913 24.6008C11.7719 20.6335 16.1766 17.8789 21.0369 16.8465C21.0378 16.8464 21.0387 16.8462 21.0394 16.846C22.4361 16.5495 25.7512 16.2842 27.2014 16.2842C27.4567 16.2842 27.4426 16.0772 27.4426 15.8219C27.4426 15.5664 27.5674 15.3594 27.3121 15.3594C25.997 15.3594 22.6952 15.5904 21.4074 15.8258V14.8274C23.0791 13.4123 23.9967 11.5579 23.9967 9.58321C23.9967 7.54149 23.0159 5.62841 21.2347 4.19627C21.0654 4.06023 20.8242 4.06023 20.6549 4.19627C18.8739 5.62841 17.8929 7.54149 17.8929 9.58321C17.8929 11.5579 18.8107 13.4123 20.4822 14.8274V16.0149C19.6034 16.2149 18.7373 16.4699 17.8893 16.7768V14.0688C17.8893 13.9416 17.838 13.8265 17.7549 13.7429V13.7427L15.1648 11.1373C15.0779 11.05 14.96 11.0009 14.8367 11.0009H9.54881C9.42578 11.0009 9.30762 11.05 9.2209 11.1373L6.63087 13.7427V13.7429C6.54776 13.8265 6.49627 13.9416 6.49627 14.069V15.8352C6.17396 15.7761 5.8502 15.7241 5.52501 15.6796V14.0309C6.78913 12.9434 7.48271 11.5252 7.48271 10.0143C7.48271 8.43579 6.72608 6.9583 5.35229 5.85352C5.183 5.71748 4.94199 5.71748 4.77271 5.85352C3.39892 6.95812 2.64229 8.43579 2.64229 10.0143C2.64229 11.525 3.33587 12.9432 4.59999 14.0307V15.5732C3.92556 15.5102 1.0335 15.4776 0.35185 15.4776C0.0963871 15.4776 -0.110657 15.6847 -0.110657 15.9401C-0.110657 16.1956 0.0963871 16.4026 0.35185 16.4026C5.52501 16.1835 9.88051 17.3811 13.0695 19.2375C12.3054 19.7567 11.5757 20.3238 10.8848 20.9343C8.30113 19.618 5.52501 18.678 1.45841 18.9233C1.20313 18.9233 0.995901 19.1304 0.995901 19.3858C0.995901 19.6413 1.20313 19.8483 1.45841 19.8483C4.59999 19.6414 7.7846 20.4546 10.158 21.606C9.45486 22.2862 8.7976 23.014 8.1911 23.7832C6.39202 23.0288 4.50117 22.6465 2.56496 22.6465C2.30968 22.6465 2.10246 22.8535 2.10246 23.109C2.10246 23.3645 2.30968 23.5715 2.56496 23.5715C4.29936 23.5715 5.9951 23.9003 7.61496 24.5478C7.29536 24.9919 6.99166 25.4481 6.70602 25.9164L6.00124 27.071C5.86809 27.2889 5.93711 27.5736 6.15499 27.7066C6.23033 27.7527 6.31343 27.7745 6.39564 27.7745C6.55137 27.7745 6.70367 27.6956 6.79075 27.5528L7.49554 26.3982C7.86301 25.796 8.26012 25.2166 8.68342 24.6604C8.70004 24.6419 8.71558 24.6223 8.72913 24.6008ZM18.8181 9.58321C18.8181 7.93932 19.5702 6.38215 20.9449 5.16193C22.3196 6.38215 23.0717 7.93932 23.0717 9.58321C23.0717 11.0318 22.4871 12.4133 21.4074 13.5561V10.0143C21.4074 9.75881 21.2004 9.55177 20.9449 9.55177C20.6894 9.55177 20.4824 9.75881 20.4824 10.0143V13.5561C19.4025 12.4133 18.8181 11.0318 18.8181 9.58321ZM3.5673 10.0143C3.5673 8.83452 4.09539 7.71403 5.0625 6.8237C6.02961 7.71385 6.5577 8.83452 6.5577 10.0143C6.5577 10.9893 6.19654 11.9241 5.52501 12.7219V9.64427C5.52501 9.38881 5.31796 9.18176 5.0625 9.18176C4.80722 9.18176 4.59999 9.38881 4.59999 9.64427V12.7219C3.92845 11.9241 3.5673 10.9893 3.5673 10.0143ZM16.315 13.6063H12.3313L10.6608 11.9259H14.6445L16.315 13.6063ZM9.54881 12.1194L11.027 13.6063H8.07078L9.54881 12.1194ZM7.42128 14.5313H11.6763V17.4726C11.4619 17.3739 11.2462 17.2785 11.0288 17.1869V15.6335C11.0288 15.3783 10.8218 15.171 10.5663 15.171H8.5313C8.27601 15.171 8.06879 15.3783 8.06879 15.6335V16.1835C7.8538 16.1275 7.63808 16.0744 7.42128 16.0249V14.5313ZM10.1038 16.822C9.73707 16.6868 9.36706 16.5615 8.9938 16.4464V16.0961H10.1038V16.822ZM12.6014 17.9251V14.5313H16.9645V17.1358C16.1722 17.4641 15.3981 17.8388 14.6476 18.2601C14.4077 18.3947 14.1706 18.5345 13.9363 18.678C13.4991 18.4109 13.0539 18.1598 12.6014 17.9251Z" fill="black"/>
<path d="M20.9449 8.71896C21.0665 8.71896 21.1859 8.66946 21.2719 8.58328C21.3579 8.49728 21.4074 8.37804 21.4074 8.25645C21.4074 8.13468 21.3581 8.01544 21.2719 7.92945C21.1859 7.84327 21.0665 7.79395 20.9449 7.79395C20.8233 7.79395 20.7039 7.84327 20.6181 7.92945C20.5319 8.01544 20.4824 8.13468 20.4824 8.25645C20.4824 8.37804 20.5319 8.49728 20.6181 8.58328C20.7039 8.66927 20.8233 8.71896 20.9449 8.71896Z" fill="black"/>
</g>
</svg>
