<svg width="20" height="20" viewBox="0 0 20 20" fill="none" xmlns="http://www.w3.org/2000/svg">
<path d="M8.36714 7.91133V7.90977C8.36714 6.69063 8.7812 5.69336 9.99995 5.69336C10.6093 5.69336 11.0175 5.94258 11.2734 6.34453C11.5292 6.74648 11.6328 7.3 11.6328 7.90977L11.8847 11.7676L12.216 16.8328C12.216 17.4205 11.9825 17.9842 11.5669 18.3998C11.1513 18.8154 10.5877 19.0488 9.99995 19.0488C9.41222 19.0488 8.84857 18.8154 8.43299 18.3998C8.01741 17.9842 7.78394 17.4205 7.78394 16.8328L8.11518 11.7676L8.36714 7.91133Z" fill="#00ACEA"/>
<path d="M10 5.69333C10.6941 5.69333 11.2567 5.13072 11.2567 4.43669C11.2567 3.74267 10.6941 3.18005 10 3.18005C9.30602 3.18005 8.74341 3.74267 8.74341 4.43669C8.74341 5.13072 9.30602 5.69333 10 5.69333Z" fill="#00EFD1"/>
<path d="M12.937 8.16407L14.594 11.0434C14.6188 11.085 14.6564 11.1174 14.7012 11.1359C15.0865 11.3092 15.7651 11.5976 15.9801 11.5976C16.0419 11.5971 16.1009 11.5724 16.1446 11.5288C16.1882 11.4851 16.213 11.426 16.2135 11.3643C16.214 11.3026 16.1903 11.2431 16.1473 11.1987C16.1044 11.1544 16.0457 11.1287 15.984 11.1272C15.8707 11.1157 15.3816 10.9208 14.9627 10.735L13.2761 7.80403C13.255 7.76938 13.2251 7.74101 13.1894 7.72188C13.1536 7.70276 13.1134 7.69358 13.0729 7.69532H11.862C11.8355 7.07032 11.7046 6.59407 11.4714 6.22786C11.3222 5.98688 11.1114 5.79008 10.8608 5.65778C10.9381 5.60216 11.0101 5.53938 11.0756 5.47028L12.4584 5.31305C12.5092 5.30721 12.5567 5.28498 12.5936 5.24973C12.6306 5.21449 12.6551 5.16815 12.6634 5.11774C12.7305 4.75479 12.8295 4.39847 12.9593 4.05294C13.146 3.55989 13.471 2.92551 13.958 2.70395C14.0147 2.67822 14.0587 2.63106 14.0805 2.57284C14.1024 2.51463 14.1002 2.45012 14.0745 2.39352C14.0487 2.33692 14.0016 2.29286 13.9433 2.27103C13.8851 2.2492 13.8206 2.25139 13.764 2.27712C12.763 2.73235 12.3481 4.3279 12.2346 4.86551L11.3961 4.96016C11.5046 4.67136 11.5207 4.356 11.4421 4.05767C11.3635 3.75935 11.1942 3.49282 10.9575 3.29493L11.8955 1.84618L13.7735 1.17188C13.8025 1.16147 13.8291 1.14546 13.8519 1.12475C13.8747 1.10404 13.8932 1.07905 13.9063 1.05119C13.9195 1.02334 13.927 0.993173 13.9285 0.962413C13.9299 0.931653 13.9253 0.900903 13.9149 0.87192C13.9045 0.842937 13.8885 0.816288 13.8678 0.793494C13.8471 0.7707 13.8221 0.752208 13.7942 0.739074C13.7664 0.725939 13.7362 0.71842 13.7055 0.716944C13.6747 0.715469 13.6439 0.720067 13.615 0.730475L11.6626 1.43165C11.6143 1.44901 11.573 1.48175 11.5451 1.52485L10.5555 3.05344C10.1991 2.9098 9.80097 2.9098 9.44461 3.05344L8.45496 1.52497C8.42706 1.48187 8.38578 1.44912 8.33746 1.43176L6.38512 0.730475C6.32658 0.709454 6.2621 0.712547 6.20584 0.739074C6.14959 0.7656 6.10618 0.813386 6.08516 0.87192C6.06414 0.930454 6.06723 0.994941 6.09376 1.05119C6.12028 1.10745 6.16807 1.15086 6.2266 1.17188L8.10449 1.84633L9.04258 3.29493C8.80549 3.49322 8.63602 3.76042 8.5577 4.05942C8.47937 4.35841 8.49608 4.67438 8.60551 4.96344L7.76567 4.86579C7.65238 4.32864 7.23746 2.73219 6.23613 2.2768C6.20812 2.26406 6.17786 2.25697 6.1471 2.25592C6.11634 2.25487 6.08567 2.25989 6.05685 2.2707C6.02803 2.2815 6.00162 2.29788 5.97913 2.31889C5.95664 2.3399 5.9385 2.36513 5.92576 2.39315C5.91302 2.42117 5.90593 2.45142 5.90488 2.48218C5.90383 2.51295 5.90885 2.54361 5.91966 2.57243C5.93046 2.60125 5.94684 2.62766 5.96785 2.65016C5.98886 2.67265 6.01409 2.69078 6.04211 2.70352C6.52754 2.92426 6.85168 3.55508 7.0382 4.04508C7.16908 4.39287 7.26902 4.75153 7.33684 5.11688C7.34511 5.16711 7.36951 5.21329 7.40636 5.24842C7.4432 5.28355 7.49049 5.30573 7.54106 5.31161L8.92957 5.4729C8.99297 5.54143 9.06234 5.60418 9.13688 5.6604C8.52887 5.97407 8.18363 6.64063 8.1384 7.69532H6.92746C6.88698 7.69356 6.84677 7.70272 6.81104 7.72182C6.77531 7.74092 6.74536 7.76928 6.72434 7.80391L5.03774 10.7393C4.61719 10.9257 4.12652 11.1177 4.01637 11.1289C3.95485 11.13 3.89625 11.1554 3.85332 11.1995C3.8104 11.2436 3.7866 11.3028 3.78712 11.3643C3.78763 11.4259 3.81241 11.4847 3.85607 11.5281C3.89973 11.5714 3.95874 11.5958 4.02027 11.5959C4.23531 11.5959 4.91387 11.3049 5.29922 11.1316C5.34366 11.1148 5.38133 11.0839 5.40641 11.0435L7.06313 8.16407H8.11723L7.88789 11.6632L6.42973 12.9129C6.39202 12.9445 6.36553 12.9874 6.35422 13.0353L5.58887 16.3356C5.05449 16.6433 4.42555 16.9701 4.27727 16.9947C4.2193 17.0044 4.16706 17.0354 4.13093 17.0818C4.09481 17.1281 4.07742 17.1864 4.08224 17.2449C4.08705 17.3035 4.11371 17.3581 4.15693 17.3979C4.20014 17.4378 4.25674 17.4599 4.31551 17.4599C4.32849 17.4599 4.34145 17.4588 4.35426 17.4567C4.66797 17.4045 5.62613 16.8557 5.91234 16.6888C5.93994 16.6727 5.96395 16.6511 5.98291 16.6254C6.00187 16.5997 6.01537 16.5704 6.02258 16.5393L6.79352 13.2136L7.84492 12.3093L7.5502 16.8175C7.54984 16.8226 7.54973 16.8277 7.54973 16.8328C7.54973 17.4827 7.80789 18.106 8.26743 18.5655C8.72697 19.025 9.35023 19.2832 10.0001 19.2832C10.65 19.2832 11.2733 19.025 11.7328 18.5655C12.1923 18.106 12.4505 17.4827 12.4505 16.8328C12.4505 16.8277 12.4505 16.8226 12.45 16.8175L12.1552 12.309L13.2067 13.2136L13.9776 16.5391C13.9848 16.5702 13.9983 16.5995 14.0172 16.6252C14.0362 16.6509 14.0602 16.6725 14.0878 16.6886C14.374 16.8556 15.3322 17.4042 15.6459 17.4565C15.6587 17.4586 15.6717 17.4596 15.6846 17.4597C15.7435 17.4597 15.8002 17.4376 15.8435 17.3977C15.8868 17.3578 15.9135 17.3031 15.9183 17.2445C15.9232 17.1858 15.9057 17.1275 15.8695 17.0811C15.8333 17.0347 15.781 17.0036 15.7229 16.994C15.5747 16.9694 14.9455 16.642 14.4113 16.3343L13.6459 13.0329C13.6347 12.9843 13.6082 12.9406 13.5704 12.9081L12.1123 11.6633L11.8831 8.16407H12.937ZM8.97777 4.43672C8.97777 4.23454 9.03773 4.0369 9.15006 3.86878C9.26238 3.70067 9.42204 3.56965 9.60884 3.49227C9.79563 3.4149 10.0012 3.39466 10.1995 3.4341C10.3978 3.47355 10.5799 3.57091 10.7229 3.71387C10.8659 3.85684 10.9632 4.03899 11.0027 4.23729C11.0421 4.43559 11.0219 4.64113 10.9445 4.82793C10.8671 5.01472 10.7361 5.17438 10.568 5.28671C10.3999 5.39904 10.2022 5.45899 10 5.45899C9.72901 5.45868 9.46918 5.35088 9.27753 5.15923C9.08589 4.96759 8.97808 4.70775 8.97777 4.43672ZM10 18.8145C9.47594 18.8139 8.97337 18.6059 8.60207 18.2361C8.23078 17.8662 8.02095 17.3644 8.0184 16.8403L8.34465 11.8497C8.36754 11.7984 8.37133 11.7406 8.35531 11.6868L8.59586 8.00708C8.62079 7.95192 8.62317 7.8892 8.6025 7.83231C8.62086 6.56868 9.09078 5.92774 10 5.92774C10.4914 5.92774 10.8433 6.10524 11.0758 6.47071C11.2899 6.80665 11.3985 7.29102 11.3985 7.90997C11.3985 7.91508 11.3985 7.92016 11.3989 7.92524L11.6447 11.6874C11.6288 11.741 11.6326 11.7984 11.6553 11.8495L11.9817 16.8405C11.9791 17.3645 11.7692 17.8663 11.3979 18.2361C11.0267 18.606 10.5241 18.8139 10 18.8145Z" fill="#083863"/>
<path d="M10.8873 16.3672H9.11304C9.05088 16.3672 8.99126 16.3919 8.94731 16.4358C8.90336 16.4798 8.87866 16.5394 8.87866 16.6016C8.87866 16.6637 8.90336 16.7233 8.94731 16.7673C8.99126 16.8112 9.05088 16.8359 9.11304 16.8359H10.8873C10.9494 16.8359 11.009 16.8112 11.053 16.7673C11.0969 16.7233 11.1216 16.6637 11.1216 16.6016C11.1216 16.5394 11.0969 16.4798 11.053 16.4358C11.009 16.3919 10.9494 16.3672 10.8873 16.3672Z" fill="#083863"/>
<path d="M9.31006 15.4297H10.6897C10.7519 15.4297 10.8115 15.405 10.8555 15.361C10.8994 15.3171 10.9241 15.2575 10.9241 15.1953C10.9241 15.1332 10.8994 15.0735 10.8555 15.0296C10.8115 14.9856 10.7519 14.9609 10.6897 14.9609H9.31006C9.2479 14.9609 9.18828 14.9856 9.14433 15.0296C9.10038 15.0735 9.07568 15.1332 9.07568 15.1953C9.07568 15.2575 9.10038 15.3171 9.14433 15.361C9.18828 15.405 9.2479 15.4297 9.31006 15.4297Z" fill="#083863"/>
<path d="M9.60596 14.0234H10.3942C10.4564 14.0234 10.516 13.9987 10.56 13.9548C10.6039 13.9108 10.6286 13.8512 10.6286 13.7891C10.6286 13.7269 10.6039 13.6673 10.56 13.6233C10.516 13.5794 10.4564 13.5547 10.3942 13.5547H9.60596C9.5438 13.5547 9.48418 13.5794 9.44023 13.6233C9.39627 13.6673 9.37158 13.7269 9.37158 13.7891C9.37158 13.8512 9.39627 13.9108 9.44023 13.9548C9.48418 13.9987 9.5438 14.0234 9.60596 14.0234Z" fill="#083863"/>
</svg>
