<svg width="20" height="20" viewBox="0 0 20 20" fill="none" xmlns="http://www.w3.org/2000/svg">
<path d="M9.50708 1.21423H10.493V18.5H9.50708V1.21423Z" fill="#56965C"/>
<path d="M14.4739 3.76465H17.9536C18.0854 3.76465 18.2119 3.81777 18.3051 3.91233C18.3983 4.00688 18.4507 4.13513 18.4507 4.26885V4.77305C18.4507 5.84283 18.0317 6.8688 17.2859 7.62525C16.5401 8.3817 15.5286 8.80667 14.4739 8.80667H10.4971V7.79826C10.4971 6.72848 10.9161 5.70252 11.6618 4.94607C12.4076 4.18962 13.4192 3.76465 14.4739 3.76465V3.76465Z" fill="#73C97C"/>
<path d="M9.50293 12.8403H5.52613C4.47141 12.8403 3.4599 12.4154 2.7141 11.6589C1.96831 10.9025 1.54933 9.8765 1.54933 8.80672V8.30252C1.54933 8.16879 1.6017 8.04055 1.69492 7.94599C1.78815 7.85144 1.91459 7.79831 2.04643 7.79831H5.52613C6.58084 7.79831 7.59236 8.22328 8.33815 8.97973C9.08395 9.73618 9.50293 10.7621 9.50293 11.8319V12.8403Z" fill="#73C97C"/>
</svg>
