<svg width="40" height="40" viewBox="0 0 40 40" fill="none" xmlns="http://www.w3.org/2000/svg">
<g clip-path="url(#clip0)">
<path d="M39.5547 16.6679C39.138 16.3985 38.5629 16.051 37.862 15.6875C37.6209 15.5625 37.5246 15.2663 37.6462 15.0235C37.9996 14.3174 38.2606 13.6982 38.4394 13.2353C38.6306 12.7404 38.3901 12.1827 37.8986 11.9827C36.0444 11.2279 31.4283 9.772 26.877 11.6588C27.265 6.74724 24.4538 2.80693 23.163 1.2767C22.8209 0.871153 22.2162 0.814747 21.8046 1.14951C21.4197 1.46256 20.9114 1.90209 20.3491 2.45638C20.1557 2.64701 19.8443 2.64701 19.6509 2.45638C19.0886 1.90209 18.5804 1.46256 18.1954 1.14943C17.7838 0.814669 17.1791 0.871075 16.837 1.27662C15.5462 2.80685 12.7351 6.74716 13.123 11.6587C8.57171 9.77192 3.95562 11.2279 2.10141 11.9826C1.60992 12.1827 1.36945 12.7404 1.56063 13.2353C1.73945 13.6982 2.00039 14.3173 2.35383 15.0234C2.47539 15.2662 2.37914 15.5625 2.13805 15.6875C1.43711 16.0509 0.862033 16.3985 0.445315 16.6678C-0.0003089 16.9559 -0.133512 17.5484 0.146488 17.9991C1.20297 19.6996 4.08187 23.5905 8.87303 24.7392C5.67195 28.4849 5.63023 33.3252 5.77507 35.3219C5.81343 35.8512 6.26952 36.2523 6.79929 36.2234C7.29475 36.1963 7.96428 36.1394 8.74499 36.0216C9.0135 35.981 9.26545 36.1641 9.30983 36.4319C9.43889 37.2109 9.5917 37.8652 9.71913 38.3448C9.85538 38.8576 10.3777 39.1673 10.8929 39.0403C12.8366 38.561 17.4269 37.0252 20 32.8234C22.573 37.0252 27.1633 38.561 29.1071 39.0403C29.6222 39.1673 30.1446 38.8575 30.2809 38.3448C30.4083 37.8651 30.5611 37.2108 30.6902 36.4319C30.7346 36.1641 30.9866 35.981 31.255 36.0216C32.0357 36.1394 32.7053 36.1963 33.2007 36.2234C33.7306 36.2523 34.1866 35.8512 34.2249 35.3219C34.3697 33.3252 34.328 28.4849 31.1269 24.7394C35.918 23.5906 38.797 19.6997 39.8534 17.9992C40.1335 17.5485 40.0003 16.956 39.5547 16.6679Z" fill="#F27281"/>
<path d="M16.8434 1.2699C16.8414 1.27224 16.839 1.27435 16.8371 1.27669C15.5463 2.80693 12.7351 6.74723 13.1231 11.6588C8.57177 9.77199 3.95568 11.228 2.10147 11.9827C1.60998 12.1828 1.36952 12.7404 1.56069 13.2353C1.73951 13.6982 2.00045 14.3174 2.35389 15.0235C2.47545 15.2663 2.3792 15.5625 2.13811 15.6875C1.43717 16.051 0.862094 16.3985 0.445376 16.6679C-0.000247865 16.956 -0.133451 17.5485 0.146549 17.9992C1.20303 19.6996 4.08193 23.5906 8.8731 24.7393C5.67193 28.4848 5.63021 33.3251 5.77505 35.3219C5.81341 35.8512 6.26951 36.2523 6.79927 36.2233C7.29474 36.1963 7.96427 36.1394 8.74497 36.0215C9.01349 35.981 9.26544 36.164 9.30981 36.4319C9.43888 37.2109 9.59169 37.8652 9.71911 38.3447C9.85536 38.8576 10.3777 39.1673 10.8929 39.0403C12.8366 38.561 17.4269 37.0252 20 32.8234C22.573 37.0252 27.1633 38.561 29.107 39.0403C29.6222 39.1673 30.1446 38.8575 30.2809 38.3447C30.4083 37.8651 30.5611 37.2108 30.6902 36.4319C30.7077 36.3262 30.7578 36.2341 30.8282 36.1633C16.2662 31.5458 15.8821 7.48129 16.8434 1.2699Z" fill="#EA6376"/>
<path d="M20.0001 21.7102C19.6765 21.7102 19.4141 21.448 19.4141 21.1243V15.4227C19.4141 15.0991 19.6765 14.8368 20.0001 14.8368C20.3237 14.8368 20.586 15.0991 20.586 15.4227V21.1242C20.586 21.4479 20.3237 21.7102 20.0001 21.7102Z" fill="white"/>
<path d="M20 16.9868C20.8638 16.9868 21.5641 16.2865 21.5641 15.4227C21.5641 14.5589 20.8638 13.8586 20 13.8586C19.1362 13.8586 18.436 14.5589 18.436 15.4227C18.436 16.2865 19.1362 16.9868 20 16.9868Z" fill="#F7D88B"/>
<path d="M20 21.7101C19.8501 21.7101 19.7001 21.653 19.5858 21.5386L15.5542 17.507C15.3254 17.2781 15.3254 16.9072 15.5542 16.6783C15.783 16.4495 16.154 16.4495 16.3828 16.6783L20.4143 20.7098C20.6432 20.9387 20.6432 21.3097 20.4143 21.5386C20.3 21.6529 20.15 21.7101 20 21.7101Z" fill="white"/>
<path d="M15.9688 18.6563C16.8326 18.6563 17.5328 17.9561 17.5328 17.0923C17.5328 16.2285 16.8326 15.5282 15.9688 15.5282C15.105 15.5282 14.4047 16.2285 14.4047 17.0923C14.4047 17.9561 15.105 18.6563 15.9688 18.6563Z" fill="#F7D88B"/>
<path d="M20 21.7102H14.2985C13.9749 21.7102 13.7125 21.4479 13.7125 21.1243C13.7125 20.8007 13.9749 20.5383 14.2985 20.5383H20C20.3236 20.5383 20.586 20.8007 20.586 21.1243C20.586 21.4479 20.3236 21.7102 20 21.7102Z" fill="white"/>
<path d="M14.2985 22.6883C15.1623 22.6883 15.8626 21.988 15.8626 21.1242C15.8626 20.2604 15.1623 19.5602 14.2985 19.5602C13.4347 19.5602 12.7344 20.2604 12.7344 21.1242C12.7344 21.988 13.4347 22.6883 14.2985 22.6883Z" fill="#F7D88B"/>
<path d="M15.9684 25.7418C15.8184 25.7418 15.6684 25.6846 15.5541 25.5702C15.3252 25.3413 15.3252 24.9703 15.5541 24.7415L19.5856 20.7099C19.8145 20.4811 20.1855 20.4811 20.4142 20.7099C20.643 20.9388 20.643 21.3097 20.4142 21.5386L16.3827 25.5702C16.2683 25.6846 16.1184 25.7418 15.9684 25.7418Z" fill="white"/>
<path d="M15.9688 26.7195C16.8326 26.7195 17.5328 26.0193 17.5328 25.1555C17.5328 24.2917 16.8326 23.5914 15.9688 23.5914C15.105 23.5914 14.4047 24.2917 14.4047 25.1555C14.4047 26.0193 15.105 26.7195 15.9688 26.7195Z" fill="#F7D88B"/>
<path d="M20.0001 27.4117C19.6765 27.4117 19.4141 27.1494 19.4141 26.8257V21.1243C19.4141 20.8007 19.6765 20.5383 20.0001 20.5383C20.3237 20.5383 20.586 20.8007 20.586 21.1243V26.8257C20.586 27.1494 20.3237 27.4117 20.0001 27.4117Z" fill="white"/>
<path d="M20 28.3898C20.8638 28.3898 21.5641 27.6896 21.5641 26.8258C21.5641 25.962 20.8638 25.2617 20 25.2617C19.1362 25.2617 18.436 25.962 18.436 26.8258C18.436 27.6896 19.1362 28.3898 20 28.3898Z" fill="#F7D88B"/>
<path d="M24.0316 25.7418C23.8817 25.7418 23.7317 25.6846 23.6173 25.5702L19.5857 21.5386C19.3569 21.3097 19.3569 20.9388 19.5857 20.7099C19.8145 20.4811 20.1855 20.4811 20.4143 20.7099L24.4458 24.7415C24.6747 24.9704 24.6747 25.3414 24.4458 25.5702C24.3315 25.6846 24.1816 25.7418 24.0316 25.7418Z" fill="white"/>
<path d="M24.0313 26.7195C24.8951 26.7195 25.5953 26.0193 25.5953 25.1555C25.5953 24.2917 24.8951 23.5914 24.0313 23.5914C23.1675 23.5914 22.4672 24.2917 22.4672 25.1555C22.4672 26.0193 23.1675 26.7195 24.0313 26.7195Z" fill="#F7D88B"/>
<path d="M25.7015 21.7102H20.0001C19.6765 21.7102 19.4141 21.4479 19.4141 21.1243C19.4141 20.8007 19.6765 20.5383 20.0001 20.5383H25.7015C26.0251 20.5383 26.2875 20.8007 26.2875 21.1243C26.2875 21.4479 26.0252 21.7102 25.7015 21.7102Z" fill="white"/>
<path d="M25.7016 22.6883C26.5654 22.6883 27.2657 21.988 27.2657 21.1242C27.2657 20.2604 26.5654 19.5602 25.7016 19.5602C24.8378 19.5602 24.1376 20.2604 24.1376 21.1242C24.1376 21.988 24.8378 22.6883 25.7016 22.6883Z" fill="#F7D88B"/>
<path d="M20 21.7101C19.8501 21.7101 19.7001 21.653 19.5857 21.5386C19.3569 21.3097 19.3569 20.9387 19.5857 20.7098L23.6174 16.6783C23.8462 16.4495 24.2172 16.4495 24.446 16.6783C24.6748 16.9072 24.6748 17.2781 24.446 17.507L20.4144 21.5386C20.3 21.6529 20.15 21.7101 20 21.7101Z" fill="white"/>
<path d="M24.0313 18.6563C24.8951 18.6563 25.5953 17.9561 25.5953 17.0923C25.5953 16.2285 24.8951 15.5282 24.0313 15.5282C23.1675 15.5282 22.4672 16.2285 22.4672 17.0923C22.4672 17.9561 23.1675 18.6563 24.0313 18.6563Z" fill="#F7D88B"/>
<g opacity="0.1">
<path opacity="0.1" d="M20.0001 11.9497C19.6765 11.9497 19.4141 11.6875 19.4141 11.3638V5.34778C19.4141 5.02411 19.6765 4.76184 20.0001 4.76184C20.3237 4.76184 20.586 5.02411 20.586 5.34778V11.3638C20.586 11.6875 20.3237 11.9497 20.0001 11.9497Z" fill="black"/>
<path opacity="0.1" d="M10.7175 18.6941C10.6575 18.6941 10.5965 18.6848 10.5363 18.6653L4.81467 16.8062C4.50694 16.7062 4.3385 16.3757 4.4385 16.0679C4.5385 15.7601 4.86897 15.5919 5.17686 15.6918L10.8984 17.5508C11.2062 17.6508 11.3746 17.9814 11.2746 18.2891C11.1941 18.5367 10.9644 18.6941 10.7175 18.6941Z" fill="black"/>
<path opacity="0.1" d="M10.7263 34.4736C10.607 34.4736 10.4864 34.4372 10.3824 34.3616C10.1206 34.1714 10.0626 33.805 10.2528 33.5432L13.7889 28.6761C13.9791 28.4143 14.3455 28.3561 14.6074 28.5465C14.8692 28.7368 14.9272 29.1032 14.737 29.365L11.2009 34.232C11.0863 34.3897 10.9076 34.4736 10.7263 34.4736Z" fill="black"/>
<path opacity="0.1" d="M29.2826 18.6941C29.0356 18.6941 28.8059 18.5367 28.7255 18.2891C28.6255 17.9813 28.7939 17.6508 29.1017 17.5508L34.8232 15.6917C35.131 15.5916 35.4615 15.7601 35.5616 16.0679C35.6616 16.3756 35.4931 16.7062 35.1854 16.8062L29.4638 18.6652C29.4037 18.6848 29.3426 18.6941 29.2826 18.6941Z" fill="black"/>
<path opacity="0.1" d="M29.2737 34.4735C29.0925 34.4735 28.9139 34.3898 28.7992 34.2319L25.2631 29.3649C25.0729 29.1031 25.1309 28.7367 25.3927 28.5464C25.6546 28.3561 26.021 28.4143 26.2111 28.6761L29.7472 33.5431C29.9374 33.8049 29.8794 34.1713 29.6176 34.3615C29.5135 34.4371 29.3931 34.4735 29.2737 34.4735Z" fill="black"/>
</g>
</g>
<defs>
<clipPath id="clip0">
<rect width="40" height="40" fill="white"/>
</clipPath>
</defs>
</svg>
