<svg width="40" height="40" viewBox="0 0 40 40" fill="none" xmlns="http://www.w3.org/2000/svg">
<g clip-path="url(#clip0)">
<path d="M19.9999 29.655C25.3322 29.655 29.655 25.3322 29.655 19.9999C29.655 14.6675 25.3322 10.3447 19.9999 10.3447C14.6675 10.3447 10.3447 14.6675 10.3447 19.9999C10.3447 25.3322 14.6675 29.655 19.9999 29.655Z" fill="#F5BE3C"/>
<path d="M19.9999 26.8963C23.8087 26.8963 26.8963 23.8087 26.8963 19.9999C26.8963 16.191 23.8087 13.1034 19.9999 13.1034C16.191 13.1034 13.1034 16.191 13.1034 19.9999C13.1034 23.8087 16.191 26.8963 19.9999 26.8963Z" fill="#D2A53C"/>
<path d="M19.9999 24.1378C22.2852 24.1378 24.1378 22.2852 24.1378 19.9999C24.1378 17.7147 22.2852 15.8621 19.9999 15.8621C17.7147 15.8621 15.8621 17.7147 15.8621 19.9999C15.8621 22.2852 17.7147 24.1378 19.9999 24.1378Z" fill="#C3BC41"/>
<path d="M19.9999 13.1036C19.8292 13.1036 19.6584 13.0407 19.5251 12.9144C18.0949 11.5574 17.2413 9.17895 17.2413 6.55192C17.2413 3.92489 18.0949 1.54662 19.5251 0.189433C19.7918 -0.0631444 20.208 -0.0631444 20.4748 0.189433C21.9049 1.54646 22.7585 3.92489 22.7585 6.55192C22.7585 9.17895 21.9049 11.5572 20.4748 12.9144C20.3414 13.0407 20.1706 13.1036 19.9999 13.1036Z" fill="#FFE650"/>
<path d="M19.9999 40.0001C19.8292 40.0001 19.6584 39.9372 19.5251 39.8109C18.0949 38.4539 17.2413 36.0754 17.2413 33.4484C17.2413 30.8214 18.0949 28.443 19.5251 27.0859C19.7918 26.8333 20.208 26.8333 20.4748 27.0859C21.9049 28.4429 22.7585 30.8214 22.7585 33.4484C22.7585 36.0754 21.9049 38.4538 20.4748 39.8109C20.3414 39.9371 20.1706 40.0001 19.9999 40.0001Z" fill="#FFE650"/>
<path d="M6.55181 22.7588C3.92486 22.7588 1.54651 21.9052 0.189321 20.475C-0.0629442 20.2086 -0.0629442 19.7917 0.189321 19.5253C1.54635 18.0952 3.92478 17.2416 6.55181 17.2416C9.17883 17.2416 11.5571 18.0952 12.9143 19.5253C13.1666 19.7917 13.1666 20.2086 12.9143 20.475C11.5571 21.9052 9.17875 22.7588 6.55181 22.7588Z" fill="#FFE650"/>
<path d="M33.4482 22.7588C30.8212 22.7588 28.4428 21.9052 27.0857 20.475C26.8334 20.2086 26.8334 19.7917 27.0857 19.5253C28.4427 18.0952 30.8211 17.2416 33.4482 17.2416C36.0752 17.2416 38.4535 18.0952 39.8107 19.5253C40.0629 19.7917 40.0629 20.2086 39.8107 20.475C38.4535 21.9052 36.0752 22.7588 33.4482 22.7588Z" fill="#FFE650"/>
<path d="M14.5164 15.3271C12.5774 15.3271 10.355 14.2562 8.54027 12.4412C6.68207 10.5837 5.60418 8.29789 5.65629 6.32758C5.66605 5.96086 5.96066 5.66618 6.32738 5.65649C8.30198 5.60227 10.5835 6.6825 12.441 8.54031C14.2992 10.3978 15.3771 12.6837 15.3248 14.6539C15.315 15.0206 15.0204 15.3153 14.6537 15.325C14.6084 15.3264 14.5622 15.3271 14.5164 15.3271Z" fill="#FFE650"/>
<path d="M33.5351 34.3458C31.5965 34.3458 29.3736 33.2752 27.5589 31.4601C25.7007 29.6019 24.6228 27.3165 24.675 25.3462C24.6848 24.9795 24.9794 24.6848 25.3461 24.6751C27.3026 24.6179 29.6019 25.7008 31.46 27.559C33.3178 29.4168 34.3958 31.7022 34.3435 33.6725C34.3338 34.0393 34.0391 34.334 33.6724 34.3436C33.627 34.345 33.5809 34.3458 33.5351 34.3458Z" fill="#FFE650"/>
<path d="M6.46493 34.3458C6.41915 34.3458 6.37305 34.3451 6.32751 34.3438C5.96079 34.3341 5.6661 34.0395 5.65641 33.6727C5.60423 31.7025 6.68212 29.4167 8.54024 27.5592C10.3973 25.7014 12.6838 24.6197 14.6538 24.6753C15.0205 24.685 15.3152 24.9796 15.3249 25.3464C15.3771 27.3166 14.2992 29.6024 12.4411 31.4599C10.6267 33.2749 8.40352 34.3458 6.46493 34.3458Z" fill="#FFE650"/>
<path d="M25.4835 15.3272C25.4374 15.3272 25.3916 15.3265 25.3461 15.3252C24.9793 15.3155 24.6847 15.0208 24.675 14.6541C24.6228 12.6839 25.7007 10.3984 27.5588 8.54023C29.4163 6.68242 31.6964 5.59274 33.6724 5.65672C34.0391 5.66649 34.3338 5.9611 34.3435 6.32782C34.3957 8.29805 33.3178 10.5836 31.46 12.4414C29.645 14.2563 27.4222 15.3272 25.4835 15.3272Z" fill="#FFE650"/>
<path d="M17.0965 13.6811C17.0143 13.6811 16.9308 13.6666 16.8497 13.6353C15.009 12.9288 13.3102 11.0582 12.305 8.63126C11.2995 6.204 11.178 3.67986 11.98 1.87924C12.1289 1.54385 12.5135 1.38252 12.8573 1.51588C14.698 2.22237 16.3968 4.09299 17.402 6.51994C18.4075 8.9472 18.529 11.4713 17.727 13.272C17.6131 13.5279 17.3615 13.6811 17.0965 13.6811Z" fill="#FFD741"/>
<path d="M27.3895 38.5301C27.3073 38.5301 27.2238 38.5156 27.1427 38.4843C25.302 37.7778 23.6031 35.9072 22.598 33.4803C21.5924 31.053 21.471 28.5287 22.273 26.7282C22.4219 26.3929 22.8067 26.2315 23.1503 26.3649C24.991 27.0714 26.6898 28.942 27.6949 31.3689C28.7005 33.7962 28.822 36.3205 28.0199 38.121C27.906 38.3769 27.6545 38.5301 27.3895 38.5301Z" fill="#FFD741"/>
<path d="M4.59501 28.5457C3.59657 28.5457 2.66845 28.3716 1.87915 28.02C1.54408 27.8709 1.38447 27.4853 1.5158 27.1428C2.22228 25.3021 4.0929 23.6032 6.51985 22.5981C8.94672 21.5922 11.4712 21.4714 13.2719 22.2731C13.6069 22.4222 13.7666 22.8078 13.6352 23.1503C12.9287 24.991 11.0581 26.6899 8.63117 27.695C7.26813 28.2598 5.87399 28.5457 4.59501 28.5457Z" fill="#FFD741"/>
<path d="M29.444 18.2528C28.4456 18.2528 27.5174 18.0786 26.7282 17.7271C26.3931 17.5779 26.2335 17.1923 26.3648 16.8498C27.0713 15.0091 28.9419 13.3103 31.3688 12.3051C33.7957 11.2996 36.32 11.1781 38.1209 11.9801C38.4559 12.1293 38.6155 12.5149 38.4842 12.8574C37.7777 14.6981 35.9071 16.3969 33.4802 17.4021C32.117 17.9669 30.7229 18.2528 29.444 18.2528Z" fill="#FFD741"/>
<path d="M10.556 18.2527C9.27703 18.2527 7.88289 17.9669 6.51985 17.4021C4.09298 16.397 2.22228 14.6981 1.5158 12.8574C1.38447 12.5149 1.54408 12.1294 1.87915 11.9802C3.67938 11.1784 6.20399 11.3 8.63117 12.3052C11.058 13.3103 12.9287 15.0092 13.6352 16.8499C13.7666 17.1924 13.6069 17.5779 13.2719 17.7271C12.4826 18.0787 11.5541 18.2527 10.556 18.2527Z" fill="#FFD741"/>
<path d="M35.405 28.5456C34.126 28.5456 32.7319 28.2598 31.3688 27.695C28.942 26.6898 27.0713 24.9909 26.3648 23.1503C26.2335 22.8078 26.3931 22.4223 26.7282 22.2731C28.5291 21.4713 31.0533 21.5931 33.4802 22.5981C35.907 23.6032 37.7777 25.3021 38.4842 27.1427C38.6155 27.4852 38.4559 27.8708 38.1209 28.02C37.3315 28.3715 36.403 28.5456 35.405 28.5456Z" fill="#FFD741"/>
<path d="M12.6105 38.5301C12.3455 38.5301 12.0939 38.3769 11.9801 38.121C11.1779 36.3204 11.2995 33.7961 12.3051 31.369C13.3103 28.9421 15.0092 27.0714 16.8498 26.3649C17.192 26.2333 17.5778 26.3929 17.727 26.7283C18.5292 28.5289 18.4077 31.0531 17.402 33.4803C16.3969 35.9071 14.698 37.7779 12.8574 38.4843C12.7762 38.5153 12.6927 38.5301 12.6105 38.5301Z" fill="#FFD741"/>
<path d="M22.9034 13.6811C22.6384 13.6811 22.3868 13.5279 22.273 13.272C21.4708 11.4714 21.5924 8.94715 22.598 6.51996C23.6032 4.09309 25.3021 2.22239 27.1427 1.51591C27.4852 1.38396 27.8703 1.54388 28.02 1.87927C28.8221 3.67989 28.7006 6.20411 27.695 8.63129C26.6898 11.0582 24.9909 12.9289 23.1503 13.6353C23.0691 13.6663 22.9856 13.6811 22.9034 13.6811Z" fill="#FFD741"/>
<path d="M19.9999 22.7585C21.5234 22.7585 22.7585 21.5234 22.7585 19.9999C22.7585 18.4764 21.5234 17.2413 19.9999 17.2413C18.4764 17.2413 17.2413 18.4764 17.2413 19.9999C17.2413 21.5234 18.4764 22.7585 19.9999 22.7585Z" fill="#B4D246"/>
</g>
<defs>
<clipPath id="clip0">
<rect width="40" height="40" fill="white"/>
</clipPath>
</defs>
</svg>
