<svg width="20" height="20" viewBox="0 0 20 20" fill="none" xmlns="http://www.w3.org/2000/svg">
<path d="M13.5036 8.0835C14.5629 9.1792 15.2282 10.764 15.2282 12.5269C15.2282 15.8347 11.6071 18.5159 10.0153 18.5159C10.0086 18.5159 10.002 18.5159 9.99536 18.5155V11.5917L13.4973 8.08975L13.5036 8.0835Z" fill="#F4B844"/>
<path d="M13.4973 8.07705C13.4993 8.07939 13.5016 8.08135 13.5036 8.08369L13.4973 8.08994L9.99536 11.5919V5.34424H11.6469C12.1372 5.34565 12.6071 5.54105 12.9538 5.88776C13.3005 6.23447 13.4959 6.70431 13.4973 7.19463V8.07705Z" fill="#FEDB41"/>
<path d="M11.6268 5.34424H8.36353C8.36353 4.90439 9.094 3.87158 9.99517 3.87158C10.8963 3.87158 11.6268 4.90439 11.6268 5.34424Z" fill="#00ACEA"/>
<path d="M9.99526 11.5917V18.5155C8.39292 18.4937 4.76245 15.821 4.76245 12.5269C4.76245 10.764 5.42769 9.1792 6.48706 8.0835L6.49331 8.08975L9.99526 11.5917Z" fill="#00CEB4"/>
<path d="M9.99526 5.3708V11.5919L6.49331 8.08994L6.48706 8.08369C6.48901 8.08135 6.49136 8.07939 6.49331 8.07705V7.19463C6.49472 6.70431 6.69013 6.23447 7.03684 5.88776C7.38355 5.54105 7.85338 5.34565 8.3437 5.34424H9.99526V5.3708Z" fill="#00EFD1"/>
<path d="M17.4969 18.6272C17.5108 18.6297 17.5249 18.631 17.539 18.6311C17.5976 18.6311 17.654 18.6092 17.6972 18.5697C17.7404 18.5302 17.7673 18.4759 17.7725 18.4176C17.7777 18.3593 17.7609 18.3011 17.7254 18.2546C17.6898 18.208 17.6382 18.1764 17.5806 18.1661C17.5276 18.1564 17.297 17.9976 16.9431 17.4144C16.6857 16.9902 16.4688 16.5082 16.4154 16.2418C16.2996 15.6617 15.2713 15.3262 14.7276 15.1879C15.1437 14.4441 15.4626 13.5431 15.4626 12.5272C15.465 11.4176 15.1999 10.3237 14.6895 9.33848C15.3731 9.54204 15.7663 9.81407 15.7968 9.96653C15.9114 10.539 16.7251 12.149 17.3378 12.2605C17.3681 12.2662 17.3993 12.2658 17.4296 12.2594C17.4598 12.253 17.4884 12.2407 17.5139 12.2232C17.5393 12.2057 17.5611 12.1833 17.5778 12.1574C17.5946 12.1315 17.6061 12.1025 17.6116 12.0721C17.6171 12.0417 17.6166 12.0105 17.61 11.9803C17.6035 11.9501 17.591 11.9215 17.5734 11.8962C17.5557 11.8709 17.5332 11.8492 17.5072 11.8326C17.4812 11.816 17.4521 11.8047 17.4217 11.7993C17.3688 11.7897 17.138 11.6309 16.7842 11.0476C16.5268 10.6233 16.3098 10.1409 16.2564 9.8745C16.1219 9.20262 14.774 8.85919 14.3621 8.76985C14.176 8.48969 13.9454 8.22618 13.7501 7.98337V7.19462C13.7474 6.84786 13.658 6.50729 13.49 6.20391L14.2999 6.13477C14.3389 6.13141 14.3765 6.11813 14.409 6.09619C14.4416 6.07425 14.4679 6.04437 14.4857 6.00938L15.4631 4.12766L16.5355 3.98473C16.5971 3.97645 16.6529 3.94402 16.6906 3.8946C16.7283 3.84517 16.7448 3.78279 16.7365 3.72118C16.7282 3.65957 16.6958 3.60377 16.6464 3.56607C16.597 3.52836 16.5346 3.51184 16.473 3.52012L15.2792 3.67911C15.2418 3.68407 15.2063 3.69795 15.1755 3.71956C15.1446 3.74118 15.1195 3.76989 15.1021 3.80329L14.1269 5.67864L13.1581 5.76067C12.808 5.39046 12.334 5.16173 11.8263 5.1179C11.7189 4.73313 11.3697 4.23708 10.8972 3.92794L11.5713 2.88708L13.4392 1.68079C13.4914 1.64707 13.5281 1.59398 13.5412 1.53321C13.5543 1.47244 13.5427 1.40896 13.5089 1.35674C13.4752 1.30452 13.4221 1.26784 13.3614 1.25476C13.3006 1.24168 13.2371 1.25328 13.1849 1.287L11.2747 2.52055C11.2469 2.53853 11.2232 2.56222 11.2052 2.59005L10.474 3.71895C10.1642 3.60968 9.8263 3.60968 9.51646 3.71895L8.78533 2.59005C8.76731 2.56223 8.7436 2.53854 8.71576 2.52055L6.8056 1.287C6.77975 1.2703 6.75085 1.25886 6.72058 1.25333C6.6903 1.2478 6.65923 1.24828 6.62914 1.25476C6.59905 1.26124 6.57053 1.27358 6.5452 1.29107C6.51988 1.30857 6.49826 1.33089 6.48156 1.35674C6.46486 1.3826 6.45342 1.41149 6.44789 1.44177C6.44236 1.47205 6.44284 1.50312 6.44932 1.53321C6.4558 1.5633 6.46814 1.59182 6.48564 1.61714C6.50313 1.64246 6.52545 1.66409 6.55131 1.68079L8.41923 2.88708L9.0933 3.92794C8.62064 4.23708 8.27162 4.73313 8.1642 5.1179C7.65566 5.16181 7.18103 5.39121 6.83068 5.76243L5.84056 5.67844L4.8658 3.80329C4.84844 3.76989 4.82329 3.74117 4.79248 3.71955C4.76168 3.69793 4.72611 3.68404 4.68881 3.67907L3.49467 3.52008C3.43302 3.51188 3.37065 3.5285 3.32126 3.56628C3.27187 3.60407 3.23951 3.65993 3.23131 3.72157C3.2231 3.78321 3.23972 3.84559 3.2775 3.89498C3.31529 3.94437 3.37115 3.97672 3.43279 3.98493L4.50611 4.12782L5.48443 6.00934C5.50267 6.04442 5.52948 6.07432 5.56238 6.09625C5.59528 6.11818 5.6332 6.13143 5.67259 6.13477L6.50463 6.20575C6.33875 6.50903 6.25124 6.84894 6.25006 7.19462V7.98337C6.05474 8.22094 5.82838 8.47837 5.64541 8.75169C5.62732 8.75081 5.60919 8.75223 5.59146 8.75591C5.28763 8.81751 3.76592 9.1609 3.62302 9.87454C3.56986 10.1407 3.35349 10.623 3.09611 11.0473C2.74228 11.6306 2.51185 11.7895 2.45896 11.7992C2.40154 11.8098 2.35014 11.8415 2.31484 11.888C2.27955 11.9345 2.26289 11.9926 2.26814 12.0507C2.27339 12.1089 2.30017 12.163 2.34322 12.2025C2.38628 12.2419 2.44252 12.2639 2.50092 12.264C2.51511 12.264 2.52926 12.2627 2.54322 12.2601C3.1565 12.1484 3.96959 10.5384 4.08377 9.96618C4.12802 9.74508 4.7051 9.4738 5.31974 9.30356C4.79732 10.2976 4.52559 11.4041 4.52818 12.527C4.52818 13.5429 4.8508 14.4445 5.27092 15.1882C4.72662 15.3268 3.70037 15.6621 3.58474 16.2416C3.53131 16.5079 3.31439 16.9901 3.05697 17.4141C2.70314 17.9973 2.47248 18.1563 2.41955 18.1658C2.36174 18.176 2.30986 18.2075 2.27416 18.2541C2.23846 18.3007 2.22155 18.3589 2.22676 18.4174C2.23196 18.4759 2.25892 18.5303 2.30229 18.5698C2.34567 18.6093 2.4023 18.6312 2.46099 18.631C2.47511 18.6309 2.48918 18.6296 2.50306 18.6271C3.11572 18.516 3.92955 16.906 4.04424 16.3333C4.09431 16.0827 4.82963 15.7674 5.52806 15.6081C5.84325 16.0809 6.20722 16.5193 6.614 16.916C7.72209 17.9988 9.0772 18.7353 9.98775 18.7499H9.9908C9.99224 18.7499 9.99365 18.7501 9.99509 18.7501H9.99724C10.0031 18.7501 10.009 18.7504 10.015 18.7504C10.9194 18.7504 12.2728 18.0185 13.3826 16.9292C13.7915 16.5286 14.1569 16.0858 14.4724 15.6081C15.3871 15.8125 15.9199 16.155 15.9556 16.3336C16.0704 16.9063 16.8843 18.5161 17.4969 18.6272ZM13.2813 7.19462V7.99286L10.2344 11.0261V5.58602H11.6469C12.538 5.58602 13.2813 6.30356 13.2813 7.19462ZM9.99537 4.11337C10.616 4.11337 11.1452 4.72665 11.326 5.11727H8.66474C8.84556 4.72665 9.37474 4.11337 9.99537 4.11337ZM8.34381 5.58602H9.76568V11.0261L6.71881 7.99286V7.19462C6.71881 6.30356 7.45275 5.58602 8.34381 5.58602ZM4.99693 12.527C4.99693 10.9824 5.54248 9.50079 6.49638 8.422L9.76568 11.689V18.2602C8.86724 18.1223 7.70416 17.3234 6.94423 16.5808C6.21783 15.8712 4.99693 14.4005 4.99693 12.527ZM13.0568 16.5947C11.9974 17.6346 10.8985 18.1661 10.2344 18.2645V11.689L13.499 8.42196C14.4529 9.50079 14.9961 10.9824 14.9961 12.527C14.9961 14.4102 13.7811 15.8839 13.0568 16.5947Z" fill="#083863"/>
</svg>
