<svg width="20" height="20" viewBox="0 0 20 20" fill="none" xmlns="http://www.w3.org/2000/svg">
<path d="M7.18311 9.71435V5.14293C7.18311 4.23361 7.53924 3.36154 8.17317 2.71856C8.80709 2.07558 9.66688 1.71436 10.5634 1.71436C10.8622 1.71436 11.1488 1.83476 11.3601 2.04909C11.5714 2.26342 11.6901 2.55411 11.6901 2.85721V9.71435H7.18311Z" fill="#BDBDBD"/>
<path d="M9.99996 9.14293C9.99996 8.23361 9.64383 7.36154 9.0099 6.71856C8.37597 6.07558 7.51619 5.71436 6.61968 5.71436C6.32084 5.71436 6.03425 5.83476 5.82294 6.04909C5.61163 6.26342 5.49292 6.55411 5.49292 6.85721V12.0001C5.49292 12.9094 5.84906 13.7815 6.48298 14.4244C7.11691 15.0674 7.97669 15.4286 8.8732 15.4286H9.99996V9.14293Z" fill="#E7E7E7"/>
<path d="M10 15.4286H11.1268C12.0233 15.4286 12.8831 15.0674 13.517 14.4244C14.1509 13.7814 14.507 12.9093 14.507 12V4.57145C14.507 4.26834 14.3883 3.97765 14.177 3.76332C13.9657 3.549 13.6791 3.42859 13.3803 3.42859C12.4838 3.42859 11.624 3.78981 10.9901 4.43279C10.3561 5.07578 10 5.94785 10 6.85716V15.4286Z" fill="white"/>
<path d="M8.87329 15.4286H11.1268V16.5714C11.1268 16.8746 11.0081 17.1652 10.7968 17.3796C10.5855 17.5939 10.2989 17.7143 10.0001 17.7143C9.70121 17.7143 9.41462 17.5939 9.20331 17.3796C8.992 17.1652 8.87329 16.8746 8.87329 16.5714V15.4286Z" fill="#999999"/>
</svg>
